<?xml version="1.0" standalone="no"?><!DOCTYPE svg PUBLIC "-//W3C//DTD SVG 1.1//EN" "http://www.w3.org/Graphics/SVG/1.1/DTD/svg11.dtd"><svg t="1741007831018" class="icon" viewBox="0 0 1024 1024" version="1.1" xmlns="http://www.w3.org/2000/svg" p-id="4370" xmlns:xlink="http://www.w3.org/1999/xlink" width="200" height="200" fill="#f9fafc"><path d="M874.086 693.658h-11.468c-28.468 0-52.02-31.744-52.02-70.656V396.698c0-38.912 23.348-70.656 52.02-70.656h11.468c28.672 0 52.02 31.744 52.02 70.656v226.304c-0.205 38.912-23.552 70.656-52.02 70.656zM721.51 824.32h-43.827v129.024c0 38.707-23.347 70.656-52.019 70.656h-11.469c-28.672 0-52.019-31.744-52.019-70.656V824.32h-97.69v127.59c0 38.708-23.347 70.452-52.019 70.452h-11.469c-28.672 0-52.019-31.744-52.019-70.452V824.32h-47.718c-29.287 0-53.043-25.395-53.043-56.32V321.331h526.336V768c0 30.925-23.962 56.32-53.044 56.32zM388.71 87.45l-47.923-73.728c-2.048-3.277-1.433-7.988 1.843-10.24l1.23-0.82c3.071-2.252 7.372-1.433 9.625 1.844l49.561 76.185c32.564-14.131 68.608-21.913 106.496-21.913 39.936 0 77.824 8.601 111.616 24.37l51.815-79.871c2.253-3.277 6.553-4.096 9.625-1.843l1.23 0.819c3.071 2.253 3.89 6.963 1.842 10.24l-50.38 77.619c72.704 38.912 124.928 110.387 135.577 194.56H248.013c11.059-86.22 65.331-159.13 140.697-197.222z m235.316 113.664c14.336 0 26.01-12.288 26.01-27.648 0-15.156-11.674-27.648-26.01-27.648-14.336 0-26.01 12.288-26.01 27.648s11.674 27.648 26.01 27.648z m-224.666 0c14.336 0 26.01-12.288 26.01-27.648 0-15.156-11.674-27.648-26.01-27.648-14.336 0-26.01 12.288-26.01 27.648s11.47 27.648 26.01 27.648z m-239.616 491.11h-11.469c-28.672 0-52.019-31.744-52.019-70.451V395.264c0-38.707 23.347-70.656 52.02-70.656h11.468c28.672 0 52.02 31.744 52.02 70.656v226.304c0 38.912-23.348 70.656-52.02 70.656z" p-id="4371"></path></svg>
